<?xml version="1.0" standalone="no"?>
<!DOCTYPE svg PUBLIC "-//W3C//DTD SVG 20010904//EN"
 "http://www.w3.org/TR/2001/REC-SVG-20010904/DTD/svg10.dtd">
<svg version="1.0" xmlns="http://www.w3.org/2000/svg"
 width="500.000000pt" height="500.000000pt" viewBox="0 0 500.000000 500.000000"
 preserveAspectRatio="xMidYMid meet">

<g transform="translate(0.000000,500.000000) scale(0.100000,-0.100000)"
fill="#000000" stroke="none">
<path d="M2409 4265 c-57 -11 -112 -43 -129 -75 -18 -34 -11 -31 28 9 47 50
90 59 166 37 40 -12 70 -30 102 -61 l46 -44 -4 -75 c-4 -95 12 -72 19 27 4 64
2 76 -18 106 -50 72 -114 96 -210 76z"/>
<path d="M2090 4118 c-107 -30 -224 -75 -290 -111 -93 -50 -193 -117 -186
-124 3 -3 28 11 56 32 59 43 162 95 190 95 10 0 22 5 25 10 3 6 14 10 23 10 9
0 29 7 44 14 15 8 55 17 88 20 74 7 76 3 85 -120 4 -51 15 -109 26 -136 26
-64 24 -96 -6 -120 -14 -11 -25 -26 -25 -34 0 -8 -5 -14 -12 -14 -6 0 -8 -3
-5 -7 10 -9 -31 -35 -43 -28 -6 4 -10 3 -9 -2 3 -20 -2 -24 -17 -12 -13 11
-17 10 -26 -4 -11 -20 -30 -13 -21 8 3 10 -1 15 -16 15 -14 0 -19 -5 -15 -15
8 -20 -6 -19 -21 1 -10 15 -13 15 -27 1 -9 -9 -18 -14 -21 -11 -3 3 -14 1 -25
-5 -13 -7 -22 -7 -31 2 -9 9 -14 8 -21 -3 -7 -10 -13 -11 -17 -5 -5 6 -19 12
-32 12 -13 1 -28 8 -33 15 -6 8 -7 5 -3 -11 5 -16 4 -21 -4 -17 -6 4 -11 13
-11 19 0 7 -9 23 -19 37 -16 20 -21 22 -35 11 -9 -7 -13 -18 -9 -24 3 -5 2 -7
-4 -4 -25 16 -202 -200 -281 -343 -67 -121 -149 -420 -115 -420 23 0 63 -47
63 -74 0 -40 -20 -74 -51 -87 -16 -6 -29 -14 -29 -18 0 -26 33 -197 46 -240
36 -121 127 -294 191 -362 27 -29 31 -38 21 -47 -11 -9 -30 13 -89 101 -108
161 -155 281 -181 467 -11 75 -16 89 -45 116 -51 49 -43 112 18 133 17 6 28
15 24 21 -11 18 25 181 62 280 73 195 170 348 311 491 53 53 85 90 70 81 -16
-9 -28 -21 -28 -27 0 -5 -5 -3 -10 7 -14 23 -50 12 -51 -16 0 -11 -3 -15 -6
-8 -8 20 -23 14 -24 -10 0 -13 -3 -17 -6 -10 -7 17 -23 15 -23 -4 0 -10 -6
-14 -15 -10 -9 3 -15 0 -15 -9 0 -8 -11 -17 -24 -21 -16 -4 -23 -11 -19 -20 8
-21 -44 -18 -56 3 -9 17 -12 16 -41 -5 l-32 -24 17 26 c10 14 21 23 26 20 5
-3 6 2 3 11 -5 11 -2 14 10 9 12 -5 15 -2 9 12 -5 13 -3 15 7 9 8 -5 11 -4 6
3 -3 5 6 25 20 44 14 18 0 6 -31 -27 -31 -33 -81 -94 -112 -136 -216 -296
-298 -693 -217 -1059 20 -89 78 -249 124 -340 61 -122 204 -312 303 -403 93
-85 229 -177 326 -219 68 -30 244 -89 249 -83 3 2 -7 42 -22 87 -71 227 -94
398 -75 581 12 126 35 206 90 325 52 112 62 155 54 226 -6 60 -61 206 -76 206
-15 0 -40 -103 -49 -205 -5 -55 -17 -125 -25 -155 -19 -64 -98 -244 -149 -343
-20 -38 -36 -75 -36 -82 0 -8 15 -43 34 -77 19 -35 42 -87 51 -117 16 -48 16
-54 2 -69 -14 -14 -18 -14 -41 1 -13 9 -28 27 -31 39 -12 38 -77 138 -86 132
-12 -7 -11 -81 1 -123 5 -18 27 -61 49 -95 52 -81 56 -98 31 -127 l-20 -24
-34 38 c-82 92 -138 258 -122 361 4 23 11 154 16 291 10 289 17 330 66 428 43
86 53 166 57 455 2 183 3 188 29 233 41 69 101 109 190 124 46 7 243 103 286
139 47 40 45 94 -5 167 -47 68 -63 124 -63 216 0 82 -2 83 -80 61z m-420 -518
c-8 -5 -10 -10 -4 -10 6 0 11 -19 12 -42 2 -47 -4 -49 -9 -3 -2 17 -7 35 -12
42 -4 6 -3 14 3 18 6 3 7 12 4 18 -4 8 -2 7 7 -1 12 -11 12 -14 -1 -22z m-330
-66 c0 -8 -5 -12 -10 -9 -6 4 -8 11 -5 16 9 14 15 11 15 -7z m-33 -36 c-3 -8
-6 -5 -6 6 -1 11 2 17 5 13 3 -3 4 -12 1 -19z m348 -750 c7 -7 -33 -8 -115 -4
-69 3 -146 7 -172 8 -27 1 -48 6 -48 11 0 12 322 -3 335 -15z"/>
<path d="M2718 4005 c-5 -99 -27 -155 -80 -211 -26 -28 -29 -36 -22 -70 4 -24
19 -50 38 -67 40 -38 223 -129 312 -156 84 -25 144 -72 169 -133 14 -35 17
-72 16 -188 -1 -207 22 -427 52 -488 44 -87 63 -191 72 -387 3 -71 10 -178 16
-236 6 -59 9 -153 6 -210 -4 -91 -9 -112 -36 -166 -53 -107 -46 -107 65 -5 47
42 89 78 94 80 16 6 137 156 184 230 143 224 202 418 212 702 6 155 5 172 -21
285 -54 238 -112 377 -233 558 -166 248 -471 460 -768 535 l-71 18 -5 -91z
m99 -18 c3 -4 15 -7 25 -7 10 0 18 -5 18 -11 0 -6 6 -9 14 -6 8 3 22 -3 31
-13 9 -10 23 -16 32 -13 9 4 16 -2 20 -16 3 -11 8 -19 12 -17 4 3 13 1 21 -5
11 -6 4 -9 -22 -9 -20 0 -40 5 -43 10 -5 8 -12 7 -22 -2 -8 -6 -22 -13 -30
-14 -30 -5 -22 -11 44 -39 383 -161 676 -562 716 -976 11 -112 12 -116 38
-128 61 -27 50 -124 -16 -146 -22 -7 -29 -15 -27 -29 5 -25 -14 -126 -40 -206
-39 -124 -168 -350 -199 -350 -18 0 -8 28 30 81 79 111 157 296 181 427 l11
63 -30 29 c-17 15 -31 34 -32 42 -5 55 18 98 53 98 22 0 23 23 4 141 -21 132
-54 235 -108 344 -95 189 -190 309 -334 421 -71 55 -186 123 -211 124 -4 1
-26 9 -48 20 -22 11 -49 19 -60 19 -16 -1 -15 -2 5 -9 14 -4 19 -8 11 -9 -21
-2 7 -31 31 -31 10 0 21 -6 24 -14 3 -8 15 -16 26 -19 11 -3 17 -10 13 -16 -3
-6 0 -11 8 -11 9 0 14 -11 14 -32 0 -18 -2 -26 -4 -16 -5 18 -33 33 -33 18 0
-6 4 -10 9 -10 5 0 11 -9 14 -21 5 -18 2 -20 -19 -16 -17 3 -24 0 -24 -12 -1
-13 -3 -13 -15 3 -13 17 -15 18 -15 3 0 -21 -3 -21 -43 -3 -18 8 -59 24 -93
37 -51 19 -63 28 -76 58 -15 35 -15 37 22 111 21 41 43 95 50 120 11 38 17 45
36 45 13 -1 27 -5 31 -8z m708 -1318 c3 -5 -57 -8 -135 -8 -78 1 -140 5 -140
11 0 11 268 9 275 -3z"/>
<path d="M2290 3925 c0 -5 5 -17 10 -25 5 -8 10 -10 10 -5 0 6 -5 17 -10 25
-5 8 -10 11 -10 5z"/>
<path d="M2358 3817 c13 -14 33 -28 45 -31 19 -4 20 -3 6 7 -9 7 -17 15 -17
20 -1 4 -5 7 -9 8 -5 1 -17 6 -28 11 -17 9 -17 7 3 -15z"/>
<path d="M1469 3763 l-34 -37 32 25 c26 20 50 49 40 49 -2 0 -19 -17 -38 -37z"/>
<path d="M1696 3671 c-19 -21 -15 -25 27 -35 17 -4 27 -2 27 5 0 6 7 9 15 5
13 -4 13 -2 5 14 -7 13 -17 17 -36 14 -16 -3 -23 -1 -19 6 10 16 -1 12 -19 -9z
m19 -11 c3 -5 1 -10 -4 -10 -6 0 -11 5 -11 10 0 6 2 10 4 10 3 0 8 -4 11 -10z
m45 5 c0 -2 -6 -8 -13 -14 -10 -8 -14 -7 -14 2 0 8 6 14 14 14 7 0 13 -1 13
-2z"/>
<path d="M2341 3653 c-27 -55 -41 -64 -199 -139 -78 -37 -141 -72 -139 -78 4
-11 99 -12 269 -5 69 4 78 6 88 27 5 13 7 28 4 33 -3 6 0 10 7 8 42 -5 59 26
59 106 0 44 -4 57 -22 69 -34 24 -46 20 -67 -21z m13 -103 c-6 -6 -10 -3 -10
10 0 13 4 16 10 10 7 -7 7 -13 0 -20z"/>
<path d="M2493 3676 c-13 -6 -23 -19 -23 -29 0 -17 1 -17 16 -3 21 22 31 20
45 -6 7 -13 15 -25 18 -28 25 -21 50 -60 55 -86 l7 -32 -47 3 c-37 3 -52 9
-70 32 -21 26 -23 26 -24 7 0 -13 10 -25 25 -32 14 -7 35 -28 47 -47 11 -20
26 -34 32 -32 6 2 58 -2 116 -9 189 -24 240 -15 152 26 -168 78 -215 106 -262
156 -28 29 -50 62 -50 73 0 23 -4 24 -37 7z"/>
<path d="M1840 3589 c0 -5 5 -7 10 -4 6 3 10 8 10 11 0 2 -4 4 -10 4 -5 0 -10
-5 -10 -11z"/>
<path d="M2407 3442 c-36 -40 -9 -112 43 -112 31 0 70 39 70 69 0 50 -80 80
-113 43z"/>
<path d="M1859 3425 c-58 -32 -54 -132 7 -155 87 -33 152 74 85 141 -33 32
-53 35 -92 14z"/>
<path d="M2974 3410 c-37 -15 -66 -61 -60 -95 7 -35 48 -75 78 -75 33 0 77 32
83 61 8 34 -17 94 -43 108 -24 13 -29 13 -58 1z"/>
<path d="M2338 3365 c-4 -5 -201 -15 -289 -15 -19 0 -28 -10 -43 -43 -11 -23
-21 -45 -23 -49 -6 -11 66 -86 127 -132 71 -55 136 -92 181 -104 36 -10 37 -9
67 34 18 25 42 46 58 50 25 6 26 9 20 52 -3 25 -6 64 -6 87 0 35 -4 44 -25 53
-14 6 -33 25 -43 42 -10 16 -21 28 -24 25z"/>
<path d="M2541 3329 c-11 -15 -31 -29 -43 -31 -22 -3 -23 -8 -26 -86 l-3 -82
41 -38 c27 -27 40 -47 40 -65 0 -32 19 -35 76 -11 97 40 264 183 264 225 0 7
-7 33 -16 56 l-17 43 -81 1 c-44 0 -111 3 -148 7 -65 8 -68 7 -87 -19z"/>
<path d="M1826 3198 c-3 -13 -7 -75 -11 -138 -3 -63 -8 -158 -11 -210 l-6 -95
40 -16 40 -17 42 107 c70 178 66 295 -11 354 -52 38 -77 43 -83 15z"/>
<path d="M3030 3198 c-8 -8 -28 -14 -45 -14 -28 1 -31 -3 -48 -52 -29 -88 -24
-191 13 -307 18 -55 36 -112 42 -127 l10 -27 31 20 c18 10 40 19 51 19 13 0
16 5 12 16 -3 9 -13 114 -22 233 -8 119 -18 224 -22 235 -7 16 -10 17 -22 4z"/>
<path d="M2423 3060 c-45 -18 -54 -78 -17 -114 24 -25 57 -19 89 14 l30 31
-20 37 c-21 39 -44 48 -82 32z"/>
<path d="M2050 3047 c0 -6 61 -172 65 -175 8 -8 106 50 102 61 -4 14 -167 126
-167 114z"/>
<path d="M2785 3008 c-71 -54 -141 -81 -196 -76 -39 4 -55 1 -74 -13 -13 -11
-28 -19 -34 -19 -7 0 -11 -35 -11 -104 l0 -104 29 -12 c29 -11 61 -61 61 -93
0 -9 8 -18 18 -21 25 -8 157 -135 172 -164 19 -38 23 -17 7 32 -9 25 -21 80
-28 121 -12 67 -11 87 5 168 18 89 18 91 0 102 -24 13 -76 66 -70 72 2 3 23
-9 47 -26 23 -17 45 -31 49 -31 15 0 80 184 69 195 -2 2 -22 -10 -44 -27z"/>
<path d="M2330 2935 c-7 -8 -17 -15 -22 -15 -22 0 -168 -74 -168 -85 0 -7 9
-41 21 -76 25 -77 22 -193 -9 -306 -11 -40 -16 -73 -12 -73 5 0 20 20 35 45
18 31 48 60 96 92 57 38 69 51 69 73 0 35 30 74 71 90 l32 14 -6 95 c-4 76 -9
98 -23 106 -9 6 -29 20 -44 32 -24 20 -29 21 -40 8z"/>
<path d="M2826 2764 c-40 -127 -32 -206 36 -364 109 -254 120 -448 43 -770
-42 -175 -43 -184 -12 -175 26 8 85 32 109 45 10 6 24 10 32 10 7 0 19 7 26
15 7 8 30 20 52 26 32 8 37 13 28 24 -21 25 -13 80 18 136 47 84 80 219 54
219 -16 0 -47 -41 -77 -103 -24 -50 -35 -63 -56 -65 -19 -2 -28 2 -32 17 -6
25 34 142 67 192 14 21 26 41 26 44 0 3 -38 83 -84 178 -99 203 -121 266 -140
408 -16 110 -44 210 -62 216 -6 2 -18 -22 -28 -53z"/>
<path d="M1746 2689 c-45 -35 -32 -108 23 -127 39 -14 92 12 106 51 9 26 6 32
-28 63 -42 39 -64 42 -101 13z"/>
<path d="M3035 2645 c-43 -42 -29 -96 30 -115 30 -10 40 -9 60 4 13 9 29 25
35 36 20 37 -35 100 -86 100 -8 0 -26 -11 -39 -25z"/>
<path d="M2425 2638 c-49 -26 -58 -69 -24 -112 20 -26 61 -35 85 -18 38 25 44
90 11 120 -26 24 -42 27 -72 10z"/>
<path d="M1715 2538 c-13 -39 -23 -150 -24 -278 -1 -127 0 -143 13 -130 35 36
168 381 153 397 -3 2 -21 1 -41 -2 -25 -5 -36 -13 -36 -25 0 -26 -32 -162 -37
-157 -2 3 3 42 11 88 15 91 15 94 -15 109 -14 8 -20 8 -24 -2z"/>
<path d="M2537 2506 c-3 -7 -19 -20 -36 -27 l-31 -14 0 -170 0 -170 40 -22 40
-21 60 61 c33 34 72 87 86 117 14 30 32 67 40 81 13 26 12 28 -48 80 -114 99
-140 114 -151 85z"/>
<path d="M2304 2474 c-118 -89 -130 -107 -110 -174 11 -38 34 -71 92 -135 l76
-84 40 20 40 20 -3 170 -3 170 -36 22 c-19 12 -38 23 -41 25 -4 1 -28 -14 -55
-34z"/>
<path d="M3029 2444 c16 -38 45 -107 66 -154 20 -47 49 -114 64 -149 34 -80
57 -94 47 -30 -3 24 -11 114 -16 199 -12 198 -16 212 -50 190 -12 -7 -13 -19
-2 -81 16 -96 9 -99 -12 -6 -16 72 -18 75 -49 80 -18 3 -42 8 -54 12 -23 7
-23 7 6 -61z"/>
<path d="M2050 2136 c-13 -95 -11 -121 10 -121 12 0 16 21 21 100 l5 100 3
-75 c2 -41 2 -87 1 -102 -1 -21 3 -28 17 -28 10 0 59 -5 110 -10 105 -11 119
-8 126 26 3 19 -11 39 -82 109 l-86 85 -56 0 -57 0 -12 -84z"/>
<path d="M2655 2130 c-85 -85 -88 -90 -77 -115 l12 -26 141 3 141 2 -4 74 c-3
40 -10 78 -17 85 -6 6 -11 24 -11 39 0 27 -2 28 -48 28 -46 0 -49 -2 -137 -90z"/>
<path d="M2405 2055 c-34 -33 -34 -83 -1 -115 33 -30 71 -29 107 6 37 35 37
68 0 105 -36 36 -73 37 -106 4z"/>
<path d="M2215 1950 c-22 -5 -59 -12 -83 -16 -40 -6 -43 -9 -38 -33 3 -14 8
-53 11 -86 7 -69 61 -345 76 -391 11 -35 32 -41 159 -46 l65 -2 5 250 5 249
-39 39 c-43 43 -85 52 -161 36z"/>
<path d="M2545 1927 c-9 -14 -26 -27 -38 -29 -15 -2 -22 -10 -21 -25 0 -13 1
-129 2 -258 l2 -235 38 0 c20 1 78 8 127 18 l90 17 23 49 c22 46 34 89 82 302
29 130 26 193 -8 152 -5 -7 -16 -48 -22 -91 -16 -96 -24 -95 -12 2 5 39 6 74
3 79 -12 17 -70 31 -158 37 -90 7 -91 7 -108 -18z"/>
<path d="M2030 1902 c0 -50 72 -384 94 -434 36 -84 32 -16 -10 157 -13 55 -24
125 -25 155 -1 81 -21 154 -42 158 -14 3 -17 -4 -17 -36z"/>
<path d="M1115 1010 l0 -160 30 0 31 0 -4 65 -4 65 51 0 c56 0 105 19 115 45
9 26 7 74 -5 97 -16 30 -71 48 -146 48 l-68 0 0 -160z m160 100 c18 -15 20
-61 3 -78 -7 -7 -34 -12 -60 -12 l-48 0 0 48 c0 27 3 52 8 56 10 11 80 0 97
-14z"/>
<path d="M1462 1157 c-34 -19 -49 -47 -57 -103 -17 -127 24 -204 109 -204 36
0 52 6 78 29 31 28 33 33 36 110 5 91 -7 131 -46 161 -28 23 -85 26 -120 7z
m102 -49 c20 -28 21 -152 3 -188 -17 -34 -66 -39 -93 -9 -28 31 -28 167 0 198
25 28 70 27 90 -1z"/>
<path d="M1745 1158 c-32 -17 -45 -39 -45 -79 0 -45 30 -73 87 -84 44 -8 73
-30 73 -56 0 -49 -81 -69 -102 -24 -15 32 -69 37 -61 5 3 -11 16 -31 29 -45
19 -20 32 -25 74 -25 44 0 56 5 81 29 56 56 28 129 -58 150 -58 15 -73 27 -73
55 0 30 18 46 53 46 20 0 30 -6 34 -20 4 -15 14 -20 40 -20 l34 0 -17 29 c-28
47 -100 66 -149 39z"/>
<path d="M1960 1147 c0 -21 4 -24 43 -23 l42 1 0 -138 0 -137 30 0 30 0 -3
141 -3 142 45 -5 c43 -5 46 -4 46 18 0 24 -1 24 -115 24 -114 0 -115 0 -115
-23z"/>
<path d="M2248 1043 c3 -103 7 -133 21 -153 38 -53 145 -51 185 3 18 25 21 46
25 153 l3 124 -31 0 -32 0 2 -120 c2 -134 -8 -160 -61 -160 -51 0 -60 24 -60
158 l0 122 -27 0 -28 0 3 -127z"/>
<path d="M2555 1010 l0 -160 30 0 30 0 -3 65 c-4 72 5 83 50 66 20 -8 31 -23
45 -68 16 -50 22 -58 45 -61 l27 -3 -19 57 c-11 31 -26 64 -32 72 -11 12 -10
16 1 20 44 15 65 77 40 124 -16 30 -71 48 -146 48 l-68 0 0 -160z m153 104
c49 -34 15 -94 -55 -94 l-43 0 0 55 0 55 38 0 c21 0 48 -7 60 -16z"/>
<path d="M2855 1010 l0 -160 103 0 c99 0 102 1 102 23 0 21 -3 22 -75 19 l-75
-4 0 51 0 51 65 0 c58 0 65 2 65 20 0 18 -7 20 -66 20 l-65 0 3 48 3 47 73 0
c68 0 72 1 72 23 0 21 -3 22 -102 22 l-103 0 0 -160z"/>
</g>
</svg>
